#define cursor_big_width 40
#define cursor_big_height 40
static unsigned char cursor_big_bits[] = {
   0x00, 0x00, 0x00, 0x00, 0x00, 0x00, 0x00, 0x00, 0x00, 0x00, 0x00, 0x00,
   0x00, 0x00, 0x00, 0xf8, 0xff, 0xff, 0x7f, 0x00, 0xf8, 0xff, 0xff, 0xff,
   0x00, 0xf8, 0xff, 0xff, 0xff, 0x01, 0xf8, 0xff, 0xff, 0xff, 0x01, 0xf8,
   0xff, 0xff, 0xff, 0x01, 0xf8, 0xff, 0xff, 0xff, 0x01, 0xf8, 0xff, 0xff,
   0xff, 0x00, 0xf8, 0xff, 0xff, 0x7f, 0x00, 0xf8, 0xff, 0x01, 0x00, 0x00,
   0xf8, 0xff, 0x03, 0x00, 0x00, 0xf8, 0xff, 0x07, 0x00, 0x00, 0xf8, 0xff,
   0x0f, 0x00, 0x00, 0xf8, 0xff, 0x1f, 0x00, 0x00, 0xf8, 0xff, 0x3f, 0x00,
   0x00, 0xf8, 0xf7, 0x7f, 0x00, 0x00, 0xf8, 0xe7, 0xff, 0x00, 0x00, 0xf8,
   0xc7, 0xff, 0x01, 0x00, 0xf8, 0x87, 0xff, 0x03, 0x00, 0xf8, 0x07, 0xff,
   0x07, 0x00, 0xf8, 0x07, 0xfe, 0x0f, 0x00, 0xf8, 0x07, 0xfc, 0x1f, 0x00,
   0xf8, 0x07, 0xf8, 0x3f, 0x00, 0xf8, 0x07, 0xf0, 0x7f, 0x00, 0xf8, 0x07,
   0xe0, 0xff, 0x00, 0xf8, 0x07, 0xc0, 0xff, 0x01, 0xf8, 0x07, 0x80, 0xff,
   0x03, 0xf8, 0x07, 0x00, 0xff, 0x03, 0xf8, 0x07, 0x00, 0xfe, 0x07, 0xf0,
   0x03, 0x00, 0xfc, 0x03, 0xe0, 0x01, 0x00, 0xf8, 0x03, 0x00, 0x00, 0x00,
   0xf0, 0x01, 0x00, 0x00, 0x00, 0x40, 0x00, 0x00, 0x00, 0x00, 0x00, 0x00,
   0x00, 0x00, 0x00, 0x00, 0x00, 0x00, 0x00, 0x00, 0x00, 0x00, 0x00, 0x00,
   0x00, 0x00, 0x00, 0x00, 0x00, 0x00, 0x00, 0x00 };
